{"title":"Christmas Do-Over (2006) DVDRip","uid":9365134,"size":736227331,"categoryP":"video","categoryS":"movies","magnet":"?xt=urn:btih:6972610eeb1df90bed751036c871f1e8a89a52bd&amp;dn=Christmas+Do-Over+%282006%29+DVDRip&amp;tr=udp%3A%2F%2Ftracker.openbittorrent.com%3A80&amp;tr=udp%3A%2F%2Fopen.demonii.com%3A1337&amp;tr=udp%3A%2F%2Ftracker.coppersurfer.tk%3A6969&amp;tr=udp%3A%2F%2Fexodus.desync.com%3A6969","seeders":0,"leechers":1,"uploader":"7","files":-1,"time":1387395632,"description":"Genre\t, Comedy, Family, Fantasy\nActors\tJay Mohr, Daphne Zuniga, David Millbern\nPlot\tKevin tries to be involved with his son and ex-wife's family for Christmas. During dinner, he thought his Christmas *day* couldn't be more screwed; his son suddenly wishes it was Christmas ... \n\nIMDB link\t\n &lt;a href=&quot;\nhttp://www.imdb.com/title/tt0840303/&quot; rel=&quot;nofollow&quot; target=&quot;_NEW&quot;&gt;\nhttp://www.imdb.com/title/tt0840303/&lt;/a&gt;\n\nGeneral\nComplete name                            : Christmas Do-Over (2006).avi\nFormat                                   : AVI\nFormat/Info                              : Audio Video Interleave\nFile size                                : 702 MiB\nDuration                                 : 1h 29mn\nOverall bit rate mode                    : Variable\nOverall bit rate                         : 1 094 Kbps\nWriting application                      : VirtualDubMod 1.5.10.2 (build 2540/release)\nWriting library                          : VirtualDubMod build 2540/release\n\nVideo\nID                                       : 0\nFormat                                   : MPEG-4 Visual\nFormat profile                           : Advanced Simple@L5\nFormat settings, BVOP                    : 2\nFormat settings, QPel                    : No\nFormat settings, GMC                     : No warppoints\nFormat settings, Matrix                  : Default (H.263)\nMuxing mode                              : Packed bitstream\nCodec ID                                 : XVID\nCodec ID/Hint                            : XviD\nDuration                                 : 1h 29mn\nBit rate                                 : 921 Kbps\nWidth                                    : 640 pixels\nHeight                                   : 336 pixels\nDisplay aspect ratio                     : 1.905\nFrame rate                               : 23.976 fps\nColor space                              : YUV\nChroma subsampling                       : 4:2:0\nBit depth                                : 8 bits\nScan type                                : Progressive\nCompression mode                         : Lossy\nBits/(Pixel*Frame)                       : 0.179\nStream size                              : 591 MiB (84%)\nWriting library                          : XviD 1.1.2 (UTC 2006-11-01)\n\nAudio\nID                                       : 1\nFormat                                   : MPEG Audio\nFormat version                           : Version 1\nFormat profile                           : Layer 3\nMode                                     : Joint stereo\nMode extension                           : MS Stereo\nCodec ID                                 : 55\nCodec ID/Hint                            : MP3\nDuration                                 : 1h 29mn\nBit rate mode                            : Variable\nBit rate                                 : 160 Kbps\nChannel(s)                               : 2 channels\nSampling rate                            : 48.0 KHz\nCompression mode                         : Lossy\nStream size                              : 103 MiB (15%)\nAlignment                                : Aligned on interleaves\nInterleave, duration                     : 24 ms (0.58 video frame)\nInterleave, preload duration             : 115 ms\nWriting library                          : LAME3.90.\nEncoding settings                        : -m j -V 4 -q 2 -lowpass 18 --abr 160\n &lt;a href=&quot;\nhttp://lookpic.com/O/i2/861/uv1Embhg.jpeg&quot; rel=&quot;nofollow&quot; target=&quot;_NEW&quot;&gt;\nhttp://lookpic.com/O/i2/861/uv1Embhg.jpeg&lt;/a&gt;","torrent":{"xt":"urn:btih:6972610eeb1df90bed751036c871f1e8a89a52bd","amp;dn":"Christmas+Do-Over+%282006%29+DVDRip","amp;tr":["udp%3A%2F%2Ftracker.openbittorrent.com%3A80","udp%3A%2F%2Fopen.demonii.com%3A1337","udp%3A%2F%2Ftracker.coppersurfer.tk%3A6969","udp%3A%2F%2Fexodus.desync.com%3A6969"],"infoHash":"6972610eeb1df90bed751036c871f1e8a89a52bd","infoHashBuffer":{"type":"Buffer","data":[105,114,97,14,235,29,249,11,237,117,16,54,200,113,241,232,168,154,82,189]},"announce":[],"urlList":[]}}